<svg xmlns="http://www.w3.org/2000/svg" width="24" height="24" fill="none"><path fill="#000" fill-rule="evenodd" d="M9.293 6.172a1 1 0 111.414 1.414L7.293 11h9.414l-3.414-3.414a1 1 0 011.414-1.414l4.243 4.242c.164.165.26.372.285.586h1.545a1 1 0 01.98 1.196l-2.6 8a1 1 0 01-.98.804H5.82a1 1 0 01-.98-.804l-2.6-8A1 1 0 013.22 11h1.545a.996.996 0 01.285-.586l4.243-4.242zM7 13.5a.5.5 0 111 0v5a.5.5 0 01-1 0v-5zm3 0a.5.5 0 111 0v5a.5.5 0 01-1 0v-5zm3.5-.5a.5.5 0 00-.5.5v5a.5.5 0 001 0v-5a.5.5 0 00-.5-.5zm2.5.5a.5.5 0 111 0v5a.5.5 0 01-1 0v-5z" clip-rule="evenodd"/></svg>