<svg xmlns="http://www.w3.org/2000/svg" width="32" height="32"><path fill-rule="evenodd" d="M10.927 3.635l4.084 2.97-9.479 4.053-4.03-2.93zm9.687.016l9.424 4.093-3.846 2.795-9.478-4.053zM16.001 7.27l9.379 4.011L16 15.293l-3.019-1.29-3.877-1.657-2.488-1.065zm10.484 4.629l4.014 2.918-9.424 4.093-4.07-2.959zm-20.931.016l3.158 1.35 3.877 1.657 2.441 1.045-4.103 2.985-9.424-4.094zM16.5 16.82l4.219 3.066a.5.5 0 00.492.055L26 17.862v6.832l-9.5 4.055V16.82zm-1 .039v11.889L6 24.694v-6.791l4.789 2.08a.5.5 0 00.492-.055L15.5 16.86zm4.974 5.539h-.005a.441.441 0 00-.178.043l-2.66 1.137c-.614.263-.22 1.183.394.92l2.658-1.137c.528-.208.358-.995-.209-.965zm2.659.682h-.006a.441.441 0 00-.178.043l-2.658 1.136-2.66 1.137c-.65.247-.233 1.22.394.918l2.658-1.135 2.659-1.137c.528-.207.357-.994-.21-.964z" color="#000" font-family="sans-serif" font-weight="400" overflow="visible" style="line-height:normal;text-indent:0;text-align:start;text-decoration-line:none;text-decoration-style:solid;text-decoration-color:#000;text-transform:none;block-progression:tb;isolation:auto;mix-blend-mode:normal"/></svg>