<svg xmlns="http://www.w3.org/2000/svg" width="24" height="24" fill="none"><path fill="#000" fill-rule="evenodd" d="M20 5h-1.17a3.001 3.001 0 00-5.66 0H4a1 1 0 000 2h9.17a3.001 3.001 0 005.66 0H20a1 1 0 100-2zm-4 2a1 1 0 100-2 1 1 0 000 2zM3 12a1 1 0 011-1h1.17a3.001 3.001 0 015.66 0H20a1 1 0 110 2h-9.17a3.001 3.001 0 01-5.66 0H4a1 1 0 01-1-1zm5 1a1 1 0 100-2 1 1 0 000 2zm-4 4a1 1 0 100 2h9.17a3.001 3.001 0 005.66 0H20a1 1 0 100-2h-1.17a3.001 3.001 0 00-5.66 0H4zm13 1a1 1 0 11-2 0 1 1 0 012 0z" clip-rule="evenodd"/></svg>