<svg xmlns="http://www.w3.org/2000/svg" width="19" height="20"><path fill-rule="evenodd" fill="#475266" d="M2.5 2h4C7.328 2 8 2.67 8 3.5v4A1.5 1.5 0 016.5 9h-4A1.5 1.5 0 011 7.5v-4C1 2.67 1.672 2 2.5 2zm10 0h4c.828 0 1.5.67 1.5 1.5v4A1.5 1.5 0 0116.5 9h-4A1.5 1.5 0 0111 7.5v-4c0-.83.672-1.5 1.5-1.5zm0 10h4a1.5 1.5 0 011.5 1.5v4a1.5 1.5 0 01-1.5 1.5h-4a1.5 1.5 0 01-1.5-1.5v-4a1.5 1.5 0 011.5-1.5zm-10 0h4A1.5 1.5 0 018 13.5v4A1.5 1.5 0 016.5 19h-4A1.5 1.5 0 011 17.5v-4A1.5 1.5 0 012.5 12z"/></svg>