<svg xmlns="http://www.w3.org/2000/svg" width="32" height="32" viewBox="0 0 32 32"><path fill-rule="evenodd" d="m 606.66538,152.44796 -15.44531,6.41797 0,4.45508 3.04102,0 0,20.05469 2.95703,0 0,-15.91406 18.91406,0 0,15.91406 2.95703,0 0,-20.05469 3.04102,0 0,-4.45508 -15.46485,-6.41797 z m -9.49023,10.91797 5,0 0,2 -5,0 0,-2 z m 7,0 5,0 0,2 -5,0 0,-2 z m 7,0 5,0 0,2 -5,0 0,-2 z m -9.95508,9.50977 0,4.5 5,0 0,-4.5 -5,0 z m 0,5.5 0,5 5,0 0,-5 -5,0 z m 6,0 0,5 5,0 0,-5 -5,0 z" transform="translate(-590.22 -151.376)"/></svg>