<svg xmlns="http://www.w3.org/2000/svg" width="24" height="24" fill="none" viewBox="0 0 24 24"><path fill="#000" fill-rule="evenodd" d="M9.29289 6.17156C9.68342 5.78103 10.3166 5.78103 10.7071 6.17156C11.0976 6.56208 11.0976 7.19524 10.7071 7.58577L7.29289 11H16.7071L13.2929 7.58577C12.9024 7.19524 12.9024 6.56208 13.2929 6.17156C13.6834 5.78103 14.3166 5.78103 14.7071 6.17156L18.9497 10.4142C19.1141 10.5785 19.2093 10.7859 19.2353 11H20.7802C21.4113 11 21.8846 11.5773 21.7608 12.1961L19.1608 20.1961C19.0673 20.6635 18.6569 21 18.1802 21H5.81982C5.34314 21 4.93273 20.6635 4.83924 20.1961L2.23924 12.1961C2.11548 11.5773 2.58878 11 3.21982 11H4.7647C4.79072 10.7859 4.88591 10.5785 5.05025 10.4142L9.29289 6.17156ZM7 13.5C7 13.2238 7.22386 13 7.5 13C7.77614 13 8 13.2238 8 13.5V18.5C8 18.7761 7.77614 19 7.5 19C7.22386 19 7 18.7761 7 18.5V13.5ZM10 13.5C10 13.2238 10.2239 13 10.5 13C10.7761 13 11 13.2238 11 13.5V18.5C11 18.7761 10.7761 19 10.5 19C10.2239 19 10 18.7761 10 18.5V13.5ZM13.5 13C13.2239 13 13 13.2238 13 13.5V18.5C13 18.7761 13.2239 19 13.5 19C13.7761 19 14 18.7761 14 18.5V13.5C14 13.2238 13.7761 13 13.5 13ZM16 13.5C16 13.2238 16.2239 13 16.5 13C16.7761 13 17 13.2238 17 13.5V18.5C17 18.7761 16.7761 19 16.5 19C16.2239 19 16 18.7761 16 18.5V13.5Z" clip-rule="evenodd"/></svg>