<svg xmlns="http://www.w3.org/2000/svg" width="32" height="32" viewBox="0 0 32 32"><path fill-rule="evenodd" d="m 10.926635,1023.9966 4.083985,2.9707 -9.4785164,4.0528 c -1.3430793,-0.9764 -2.6863301,-1.9533 -4.0292969,-2.9297 z m 9.6875,0.016 9.423828,4.0937 -3.845703,2.7949 -9.478515,-4.0527 z m -4.613281,3.6191 9.378906,4.0117 -9.378906,4.0117 -3.019531,-1.291 -3.8769538,-1.6562 -2.4882812,-1.0645 z m 10.484375,4.6289 4.013672,2.918 c -3.141272,1.3644 -6.282544,2.7292 -9.423828,4.0937 l -4.070313,-2.959 z m -20.931641,0.016 3.1582031,1.3496 3.8769539,1.6582 2.441406,1.045 -4.103516,2.9843 -9.4238283,-4.0937 z m 10.947266,4.9063 4.21875,3.0664 c 0.142826,0.104 0.329929,0.1249 0.492188,0.055 1.596204,-0.6934 3.192734,-1.3865 4.789062,-2.0801 l 0,6.832 -9.5,4.0547 0,-11.9277 z m -1,0.039 0,11.8887 -9.5000004,-4.0547 0,-6.791 4.7890624,2.0801 c 0.162259,0.07 0.349362,0.049 0.492188,-0.055 l 4.21875,-3.0684 z m 4.974609,5.5391 -0.0059,0 c -0.06138,0 -0.121636,0.018 -0.177734,0.043 l -2.660157,1.1367 c -0.613333,0.263 -0.218801,1.183 0.394532,0.92 l 2.658203,-1.1368 c 0.527954,-0.2074 0.357455,-0.9945 -0.208985,-0.9648 z m 2.658203,0.6816 -0.0059,0 c -0.06138,0 -0.121636,0.018 -0.177734,0.043 l -2.658203,1.1367 -2.660157,1.1367 c -0.650411,0.2472 -0.232437,1.2198 0.394532,0.918 l 2.658203,-1.1348 2.658203,-1.1367 c 0.528412,-0.2072 0.357789,-0.9949 -0.208985,-0.9649 z" color="#000" font-family="sans-serif" font-weight="400" overflow="visible" transform="translate(0 -1020.362)" style="line-height:normal;text-indent:0;text-align:start;text-decoration-line:none;text-decoration-style:solid;text-decoration-color:#000;text-transform:none;block-progression:tb;isolation:auto;mix-blend-mode:normal"/></svg>