<svg width="896" height="896" viewBox="0 0 896 896" fill="none" xmlns="http://www.w3.org/2000/svg">
<path d="M448 0C200.6 0 0 200.6 0 448C0 695.4 200.6 896 448 896C695.4 896 896 695.4 896 448C896 200.6 695.4 0 448 0ZM613.4 618.2L547.4 617.9L448 499.4L348.7 617.8L282.6 618.1C278.2 618.1 274.6 614.6 274.6 610.1C274.6 608.2 275.3 606.4 276.5 604.9L406.6 449.9L276.5 295C275.292 293.534 274.621 291.699 274.6 289.8C274.6 285.4 278.2 281.8 282.6 281.8L348.7 282.1L448 400.6L547.3 282.2L613.3 281.9C617.7 281.9 621.3 285.4 621.3 289.9C621.3 291.8 620.6 293.6 619.4 295.1L489.5 450L619.5 605C620.7 606.5 621.4 608.3 621.4 610.2C621.4 614.6 617.8 618.2 613.4 618.2Z" fill="black"/>
</svg>
