<svg xmlns="http://www.w3.org/2000/svg"
 xmlns:xlink="http://www.w3.org/1999/xlink"
 width="19px" height="20px"  viewBox="0 0 19 20">
<path fill-rule="evenodd"  fill="#475266"
 d="M2.4999924,2.0 C2.4999924,2.0 6.4999924,2.0 6.4999924,2.0 C7.328415,2.0 7.999996,2.6708984 7.999996,3.5 C7.999996,3.5 7.999996,7.5 7.999996,7.5 C7.999996,8.328125 7.328415,9.0 6.4999924,9.0 C6.4999924,9.0 2.4999924,9.0 2.4999924,9.0 C1.6715698,9.0 0.99998856,8.328125 0.99998856,7.5 C0.99998856,7.5 0.99998856,3.5 0.99998856,3.5 C0.99998856,2.6708984 1.6715698,2.0 2.4999924,2.0 ZM12.499985,2.0 C12.499985,2.0 16.499985,2.0 16.499985,2.0 C17.328407,2.0 17.999989,2.6708984 17.999989,3.5 C17.999989,3.5 17.999989,7.5 17.999989,7.5 C17.999989,8.328125 17.328407,9.0 16.499985,9.0 C16.499985,9.0 12.499985,9.0 12.499985,9.0 C11.671562,9.0 10.999981,8.328125 10.999981,7.5 C10.999981,7.5 10.999981,3.5 10.999981,3.5 C10.999981,2.6708984 11.671562,2.0 12.499985,2.0 ZM12.499985,12.0 C12.499985,12.0 16.499985,12.0 16.499985,12.0 C17.328407,12.0 17.999989,12.671875 17.999989,13.5 C17.999989,13.5 17.999989,17.5 17.999989,17.5 C17.999989,18.328125 17.328407,19.0 16.499985,19.0 C16.499985,19.0 12.499985,19.0 12.499985,19.0 C11.671562,19.0 10.999981,18.328125 10.999981,17.5 C10.999981,17.5 10.999981,13.5 10.999981,13.5 C10.999981,12.671875 11.671562,12.0 12.499985,12.0 ZM2.4999924,12.0 C2.4999924,12.0 6.4999924,12.0 6.4999924,12.0 C7.328415,12.0 7.999996,12.671875 7.999996,13.5 C7.999996,13.5 7.999996,17.5 7.999996,17.5 C7.999996,18.328125 7.328415,19.0 6.4999924,19.0 C6.4999924,19.0 2.4999924,19.0 2.4999924,19.0 C1.6715698,19.0 0.99998856,18.328125 0.99998856,17.5 C0.99998856,17.5 0.99998856,13.5 0.99998856,13.5 C0.99998856,12.671875 1.6715698,12.0 2.4999924,12.0 Z"/>
</svg>