<svg width="36" height="32" viewBox="0 0 36 32" fill="none" xmlns="http://www.w3.org/2000/svg">
<path d="M34.8438 0.875H1.15625C0.967187 0.875 0.8125 1.02969 0.8125 1.21875V3.96875C0.8125 4.15781 0.967187 4.3125 1.15625 4.3125H34.8438C35.0328 4.3125 35.1875 4.15781 35.1875 3.96875V1.21875C35.1875 1.02969 35.0328 0.875 34.8438 0.875ZM34.8438 27.6875H1.15625C0.967187 27.6875 0.8125 27.8422 0.8125 28.0312V30.7812C0.8125 30.9703 0.967187 31.125 1.15625 31.125H34.8438C35.0328 31.125 35.1875 30.9703 35.1875 30.7812V28.0312C35.1875 27.8422 35.0328 27.6875 34.8438 27.6875ZM34.8438 14.2812H1.15625C0.967187 14.2812 0.8125 14.4359 0.8125 14.625V17.375C0.8125 17.5641 0.967187 17.7188 1.15625 17.7188H34.8438C35.0328 17.7188 35.1875 17.5641 35.1875 17.375V14.625C35.1875 14.4359 35.0328 14.2812 34.8438 14.2812Z" fill="black"/>
</svg>
