<svg xmlns="http://www.w3.org/2000/svg" width="24" height="24" fill="none" viewBox="0 0 24 24"><path fill="#000" d="M3 7C3 5.89543 3.89543 5 5 5H19C20.1046 5 21 5.89543 21 7V9H17C15.3431 9 14 10.3431 14 12C14 13.6569 15.3431 15 17 15H21V17C21 18.1046 20.1046 19 19 19H5C3.89543 19 3 18.1046 3 17V7Z"/><path fill="#000" fill-rule="evenodd" d="M15 12C15 10.8954 15.8954 10 17 10H21C21.5523 10 22 10.4477 22 11V13C22 13.5523 21.5523 14 21 14H17C15.8954 14 15 13.1046 15 12ZM18 12C18 12.5523 17.5523 13 17 13C16.4477 13 16 12.5523 16 12C16 11.4477 16.4477 11 17 11C17.5523 11 18 11.4477 18 12Z" clip-rule="evenodd"/></svg>